<svg width="91" height="144" viewBox="0 0 91 144" fill="none" xmlns="http://www.w3.org/2000/svg">
<path d="M45.5 0C20.345 0 0 20.1885 0 45.15C0 79.0125 45.5 129 45.5 129C45.5 129 91 79.0125 91 45.15C91 20.1885 70.655 0 45.5 0ZM45.5 61.275C36.53 61.275 29.25 54.051 29.25 45.15C29.25 36.249 36.53 29.025 45.5 29.025C54.47 29.025 61.75 36.249 61.75 45.15C61.75 54.051 54.47 61.275 45.5 61.275Z" fill="#102C56"/>
<path d="M37.5002 104.657V93.125C37.5002 88.87 40.6735 85.4167 44.5835 85.4167C48.4935 85.4167 51.6668 88.87 51.6668 93.125V104.657C55.0952 102.159 57.3335 97.935 57.3335 93.125C57.3335 85.4475 51.6385 79.25 44.5835 79.25C37.5285 79.25 31.8335 85.4475 31.8335 93.125C31.8335 97.935 34.0718 102.159 37.5002 104.657ZM65.3802 118.932L52.5168 111.964C52.0352 111.748 51.5252 111.625 50.9868 111.625H48.8335V93.125C48.8335 90.5658 46.9352 88.5 44.5835 88.5C42.2318 88.5 40.3335 90.5658 40.3335 93.125V126.24C30.1335 123.897 30.3035 123.927 29.9352 123.927C29.0568 123.927 28.2635 124.328 27.6968 124.945L25.4585 127.412L39.4552 142.643C40.2202 143.476 41.2968 144 42.4585 144H61.6968C63.8218 144 65.4652 142.304 65.7768 140.053L67.9018 123.804C67.9302 123.588 67.9585 123.372 67.9585 123.187C67.9585 121.276 66.8818 119.611 65.3802 118.932Z" fill="#CADFF2"/>
</svg>
